<svg width="24" height="24" viewBox="0 0 24 24" fill="none" xmlns="http://www.w3.org/2000/svg">
<path d="M18.9308 5.64063C17.6561 5.05573 16.2892 4.6248 14.8599 4.37799C14.8339 4.37323 14.8079 4.38513 14.7945 4.40894C14.6187 4.72162 14.4239 5.12953 14.2876 5.45015C12.7503 5.22001 11.221 5.22001 9.71527 5.45015C9.57887 5.12241 9.37707 4.72162 9.20048 4.40894C9.18707 4.38592 9.16107 4.37402 9.13504 4.37799C7.70659 4.62401 6.33963 5.05494 5.06411 5.64063C5.05307 5.64539 5.04361 5.65333 5.03732 5.66364C2.44449 9.53728 1.73421 13.3157 2.08265 17.0473C2.08423 17.0655 2.09447 17.083 2.10867 17.0941C3.81934 18.3504 5.47642 19.1131 7.10273 19.6186C7.12876 19.6265 7.15634 19.617 7.1729 19.5956C7.55761 19.0702 7.90054 18.5163 8.19456 17.9337C8.21192 17.8996 8.19535 17.8591 8.15989 17.8456C7.61594 17.6393 7.098 17.3877 6.59977 17.102C6.56037 17.079 6.55721 17.0227 6.59347 16.9957C6.69831 16.9171 6.80318 16.8354 6.9033 16.7528C6.92141 16.7378 6.94665 16.7346 6.96794 16.7441C10.2411 18.2385 13.7846 18.2385 17.0191 16.7441C17.0404 16.7338 17.0657 16.737 17.0846 16.752C17.1847 16.8346 17.2895 16.9171 17.3952 16.9957C17.4314 17.0227 17.4291 17.079 17.3897 17.102C16.8914 17.3933 16.3735 17.6393 15.8288 17.8449C15.7933 17.8583 15.7775 17.8996 15.7949 17.9337C16.0952 18.5154 16.4381 19.0694 16.8157 19.5948C16.8315 19.617 16.8599 19.6265 16.8859 19.6186C18.5201 19.1131 20.1772 18.3504 21.8879 17.0941C21.9028 17.083 21.9123 17.0663 21.9139 17.0481C22.3309 12.734 21.2154 8.98652 18.9568 5.66443C18.9513 5.65333 18.9419 5.64539 18.9308 5.64063ZM8.68335 14.7751C7.69792 14.7751 6.88594 13.8704 6.88594 12.7594C6.88594 11.6483 7.68217 10.7436 8.68335 10.7436C9.69239 10.7436 10.4965 11.6562 10.4807 12.7594C10.4807 13.8704 9.68451 14.7751 8.68335 14.7751ZM15.329 14.7751C14.3435 14.7751 13.5316 13.8704 13.5316 12.7594C13.5316 11.6483 14.3278 10.7436 15.329 10.7436C16.338 10.7436 17.1421 11.6562 17.1264 12.7594C17.1264 13.8704 16.338 14.7751 15.329 14.7751Z" fill="#FAF9EA"/>
</svg>
