<svg width="32" height="32" viewBox="0 0 32 32" fill="none" xmlns="http://www.w3.org/2000/svg">
<g filter="url(#filter0_i_578_40673)">
<path fill-rule="evenodd" clip-rule="evenodd" d="M32 16C32 24.8387 24.8387 32 16 32C7.16133 32 0 24.8387 0 16C0 7.16133 7.16133 0 16 0C24.8387 0 32 7.16133 32 16ZM10.9046 22.6382C14.5457 22.6382 17.4974 19.6663 17.4974 16.0003C17.4974 12.3342 14.5457 9.3623 10.9046 9.3623C7.26352 9.3623 4.31186 12.3342 4.31186 16.0003C4.31186 19.6663 7.26358 22.6382 10.9046 22.6382ZM24.7298 16.0005C24.7298 19.4514 23.254 22.2489 21.4335 22.2489C19.6129 22.2489 18.1371 19.4514 18.1371 16.0005C18.1371 12.5495 19.6129 9.75195 21.4335 9.75195C23.254 9.75195 24.7298 12.5495 24.7298 16.0005ZM26.5287 21.5987C27.169 21.5987 27.6881 19.0922 27.6881 16.0003C27.6881 12.9083 27.1691 10.4019 26.5287 10.4019C25.8884 10.4019 25.3694 12.9083 25.3694 16.0003C25.3694 19.0922 25.8884 21.5987 26.5287 21.5987Z" fill="#DB4311"/>
</g>
<defs>
<filter id="filter0_i_578_40673" x="0" y="0" width="32" height="36" filterUnits="userSpaceOnUse" color-interpolation-filters="sRGB">
<feFlood flood-opacity="0" result="BackgroundImageFix"/>
<feBlend mode="normal" in="SourceGraphic" in2="BackgroundImageFix" result="shape"/>
<feColorMatrix in="SourceAlpha" type="matrix" values="0 0 0 0 0 0 0 0 0 0 0 0 0 0 0 0 0 0 127 0" result="hardAlpha"/>
<feOffset dy="4"/>
<feGaussianBlur stdDeviation="2"/>
<feComposite in2="hardAlpha" operator="arithmetic" k2="-1" k3="1"/>
<feColorMatrix type="matrix" values="0 0 0 0 0 0 0 0 0 0 0 0 0 0 0 0 0 0 0.25 0"/>
<feBlend mode="normal" in2="shape" result="effect1_innerShadow_578_40673"/>
</filter>
</defs>
</svg>
