<?xml version="1.0" standalone="no"?>
<!DOCTYPE svg PUBLIC "-//W3C//DTD SVG 20010904//EN"
 "http://www.w3.org/TR/2001/REC-SVG-20010904/DTD/svg10.dtd">
<svg version="1.0" xmlns="http://www.w3.org/2000/svg"
 width="1228.000000pt" height="1228.000000pt" viewBox="0 0 1228.000000 1228.000000"
 preserveAspectRatio="xMidYMid meet">
<metadata>
Created by potrace 1.14, written by Peter Selinger 2001-2017
</metadata>
<g transform="translate(0.000000,1228.000000) scale(0.100000,-0.100000)"
fill="#000000" stroke="none">
<path d="M5755 12048 c-214 -126 -421 -247 -460 -269 -38 -22 -88 -51 -110
-64 -22 -12 -240 -138 -485 -278 l-445 -256 -2 -868 c-2 -696 -5 -867 -15
-865 -7 2 -76 40 -153 84 -77 44 -156 90 -175 101 -19 11 -172 98 -340 195
-168 96 -330 189 -360 205 -30 17 -72 41 -92 54 -21 13 -42 23 -48 23 -5 0
-10 5 -10 10 0 6 -4 10 -9 10 -5 0 -64 32 -132 71 -68 40 -138 80 -155 90 -18
9 -36 14 -40 9 -5 -4 -29 -19 -54 -32 -25 -14 -128 -74 -230 -133 -102 -60
-198 -116 -215 -125 -16 -10 -97 -57 -180 -105 -146 -85 -564 -326 -655 -377
-25 -14 -148 -85 -275 -158 -126 -73 -241 -139 -255 -146 l-25 -14 -1 -1095
c0 -761 3 -1098 10 -1104 9 -7 501 -293 626 -364 55 -31 685 -394 788 -454
l94 -55 -49 -26 c-46 -25 -499 -282 -533 -302 -94 -57 -151 -90 -154 -90 -2 0
-62 -36 -135 -80 -72 -44 -134 -80 -137 -80 -3 0 -18 -8 -32 -19 -15 -10 -47
-29 -72 -43 -25 -14 -112 -64 -194 -112 -82 -47 -151 -86 -155 -86 -3 0 -17
-9 -31 -20 l-25 -19 -1 -1094 0 -1095 85 -50 c47 -27 103 -59 123 -71 76 -42
935 -536 1006 -578 41 -23 75 -43 78 -43 2 0 33 -18 69 -40 36 -22 67 -40 69
-40 1 0 108 -61 237 -135 l233 -134 41 23 c22 13 58 34 80 46 22 12 90 50 150
85 61 34 133 74 160 90 61 33 757 437 944 547 74 43 136 77 138 74 2 -2 5
-396 6 -876 l2 -872 195 -114 c107 -62 202 -117 210 -121 8 -3 101 -56 205
-116 105 -61 209 -121 232 -134 23 -12 108 -61 188 -108 81 -47 149 -85 153
-85 3 0 13 -6 21 -14 9 -7 41 -27 71 -43 101 -54 535 -305 564 -325 38 -27 64
-26 112 4 21 14 62 37 89 53 28 15 70 40 96 54 92 53 404 233 419 241 26 16
474 273 495 284 11 6 27 16 35 22 8 6 35 23 60 36 64 35 436 250 550 318 l95
56 2 849 c1 468 2 860 3 873 l0 23 43 -24 c23 -14 112 -65 197 -114 85 -50
175 -101 200 -115 25 -14 140 -80 255 -148 116 -67 233 -135 260 -150 28 -15
88 -50 135 -77 47 -27 96 -56 110 -64 14 -8 32 -19 40 -25 8 -7 73 -44 144
-83 l129 -71 71 41 c39 23 91 53 116 67 57 32 346 199 798 461 106 61 207 120
225 130 28 16 229 133 572 332 l110 64 3 1095 2 1095 -52 32 c-29 17 -69 40
-88 50 -75 42 -229 132 -268 157 -23 14 -43 26 -45 26 -2 0 -98 55 -213 121
-237 138 -641 371 -756 437 -43 24 -78 47 -78 51 0 8 8 13 533 315 48 28 96
56 105 61 10 6 207 120 440 255 l422 245 -2 1098 -3 1098 -570 331 c-313 182
-586 339 -605 350 -75 43 -559 323 -636 368 l-80 47 -60 -35 c-32 -19 -356
-205 -719 -414 -363 -209 -677 -391 -697 -404 l-38 -24 0 67 c-1 38 -1 431 -1
875 l0 808 -72 41 c-40 23 -85 49 -102 58 -16 9 -31 19 -33 24 -2 4 -7 7 -12
7 -8 0 -137 74 -475 270 -137 80 -602 348 -645 372 -19 11 -152 88 -295 170
-143 83 -262 152 -265 153 -3 1 -180 -101 -395 -227z m215 -1073 l0 -786 -47
28 c-27 15 -65 37 -85 50 -21 13 -39 23 -41 23 -2 0 -98 55 -213 121 -115 67
-229 133 -254 147 -25 14 -130 75 -235 135 -104 61 -203 118 -220 127 -16 10
-83 48 -147 85 -65 37 -118 71 -118 75 0 4 8 10 18 13 9 4 35 17 57 30 22 14
213 124 425 247 212 122 459 265 550 318 91 52 185 106 210 120 25 14 54 31
65 38 11 8 23 14 27 14 5 0 8 -353 8 -785z m588 659 c119 -70 237 -138 262
-152 25 -13 50 -28 55 -32 6 -4 30 -18 55 -32 25 -14 206 -119 403 -233 l358
-208 -43 -25 c-24 -14 -83 -48 -133 -77 -422 -246 -630 -367 -1177 -682 -5 -2
-8 349 -8 781 0 432 2 786 5 786 3 0 103 -57 223 -126z m-1896 -1104 c26 -16
51 -30 53 -30 3 0 22 -11 43 -23 60 -38 441 -257 446 -257 3 0 52 -27 108 -60
57 -33 114 -67 128 -75 14 -8 139 -81 278 -162 l252 -147 0 -1577 0 -1577 -57
-28 c-70 -33 -177 -138 -215 -210 -39 -73 -59 -157 -59 -249 l0 -80 -170 -100
c-94 -55 -187 -109 -208 -121 -20 -12 -209 -123 -420 -248 -211 -124 -388
-226 -392 -226 -5 0 -9 -4 -9 -10 0 -5 -4 -10 -9 -10 -4 0 -82 -43 -172 -97
-90 -53 -227 -133 -304 -178 -77 -45 -279 -164 -450 -265 -170 -100 -353 -207
-405 -237 -52 -31 -111 -66 -131 -79 l-37 -23 -273 159 c-151 88 -281 164
-289 169 -33 21 -265 156 -275 160 -5 2 -38 22 -73 43 -34 21 -64 38 -66 38
-3 0 -38 20 -80 45 -42 24 -106 61 -143 82 -38 20 -96 53 -131 73 l-62 36 170
100 c94 54 183 106 198 115 15 9 191 109 392 224 201 114 525 300 720 413 195
113 515 297 710 410 195 112 391 226 435 252 44 26 160 93 258 150 158 91 177
105 178 129 0 14 0 808 1 1764 0 955 3 1737 5 1737 3 0 28 -13 55 -30z m3056
-3511 c15 -8 162 -94 327 -189 165 -95 415 -239 555 -320 359 -207 1264 -730
1520 -878 118 -68 242 -140 275 -159 33 -19 76 -43 95 -55 19 -11 86 -49 148
-85 62 -36 112 -67 110 -68 -2 -2 -97 -58 -213 -125 -115 -67 -216 -126 -222
-132 -7 -6 -13 -7 -13 -4 0 4 -12 -1 -27 -12 -24 -16 -219 -131 -323 -189 -19
-11 -138 -81 -265 -155 -327 -192 -282 -176 -368 -130 -40 22 -108 61 -152 87
-44 26 -96 57 -115 68 -19 11 -123 70 -230 132 -107 62 -211 122 -230 132 -19
11 -150 87 -290 168 -140 81 -268 156 -285 165 -16 9 -219 126 -450 260 -231
133 -438 253 -460 265 -22 13 -80 47 -130 75 -49 29 -113 65 -141 81 -28 16
-80 46 -115 67 l-63 39 -2 84 c-2 98 -14 150 -56 234 -39 76 -146 183 -215
216 l-52 24 -1 1580 0 1580 128 75 c249 145 470 273 662 385 107 62 209 121
227 131 18 11 101 58 185 106 l153 88 3 -1763 2 -1762 28 -16z m1906 2846 c32
-19 60 -35 61 -35 3 0 166 -93 245 -140 82 -48 415 -242 456 -265 29 -16 204
-118 388 -225 l336 -195 0 -895 -1 -895 -460 -265 c-254 -146 -482 -277 -507
-291 -45 -25 -135 -77 -339 -196 -54 -31 -123 -71 -154 -88 l-56 -32 -184 107
c-101 59 -326 189 -499 290 -173 101 -326 190 -340 197 -14 8 -41 24 -61 36
-20 12 -91 53 -158 91 -66 39 -121 72 -121 75 1 5 151 93 319 187 31 17 146
83 256 146 110 63 220 126 245 140 25 14 186 107 359 206 l314 179 56 -33
c324 -191 729 39 733 416 1 172 -107 350 -262 430 -72 37 -78 40 -117 47 -143
28 -303 -10 -408 -95 -114 -92 -173 -211 -182 -368 l-6 -91 -619 -359 c-341
-197 -639 -370 -661 -383 -23 -13 -79 -45 -124 -72 l-83 -48 0 27 c-1 36 -1
1488 0 1528 0 21 6 34 18 37 9 3 348 199 752 435 404 237 738 430 741 431 3 1
31 -15 63 -34z m-6640 -114 c305 -175 832 -478 871 -501 45 -25 160 -91 219
-125 29 -16 80 -46 114 -65 l62 -35 0 -100 c1 -232 1 -1432 0 -1457 0 -29 66
-64 -630 337 -135 78 -385 222 -556 320 l-311 179 0 76 c-1 267 -203 477 -467
485 -166 5 -306 -63 -405 -195 -149 -199 -123 -477 60 -645 95 -87 197 -127
329 -127 95 0 174 21 258 71 l48 28 45 -24 c24 -14 61 -36 81 -49 21 -13 40
-24 43 -24 2 0 49 -26 102 -58 54 -32 160 -94 236 -138 76 -43 153 -87 170
-98 18 -10 154 -88 302 -173 149 -86 287 -166 307 -179 21 -13 40 -24 43 -24
2 0 34 -18 70 -40 36 -22 70 -40 75 -40 5 0 11 -4 14 -9 6 -8 -64 -51 -429
-261 -82 -48 -322 -186 -532 -308 -210 -122 -386 -223 -390 -224 -5 -2 -195
105 -422 237 -227 132 -425 247 -439 255 -15 8 -170 98 -345 199 l-317 185 0
891 0 891 378 218 c207 120 389 227 404 237 15 11 29 19 32 19 3 0 71 38 152
85 81 47 148 85 150 85 1 0 73 41 159 90 86 50 159 90 161 90 2 0 25 14 51 30
26 17 51 30 56 30 6 0 118 -62 251 -139z m-657 -1207 c29 -6 80 -50 98 -85 43
-82 6 -192 -78 -236 -31 -16 -90 -20 -128 -8 -66 20 -128 102 -129 169 0 40
37 113 66 133 55 36 97 42 171 27z m7768 -3 c53 -24 84 -59 99 -112 33 -112
-50 -221 -169 -221 -186 0 -241 256 -71 333 52 23 90 24 141 0z m-3852 -2234
c43 -24 85 -87 91 -136 2 -18 -1 -51 -6 -74 -38 -170 -281 -197 -350 -39 -79
177 98 342 265 249z m-370 -592 c106 -70 244 -98 372 -74 48 9 168 62 210 94
20 14 48 -1 480 -250 253 -146 467 -270 475 -275 8 -5 96 -56 195 -113 99 -57
236 -137 305 -177 69 -40 139 -80 155 -90 213 -123 783 -453 895 -518 80 -47
168 -97 195 -113 l50 -28 3 -790 c1 -435 -2 -791 -6 -791 -4 0 -12 4 -17 9 -9
8 -963 561 -1085 629 -25 13 -49 28 -55 32 -5 4 -86 52 -180 105 -272 156
-561 323 -597 345 -18 11 -40 23 -48 27 -14 6 -101 56 -450 258 -69 40 -237
136 -375 215 l-249 143 -31 -18 c-74 -43 -715 -410 -755 -433 -25 -13 -49 -28
-55 -32 -5 -4 -84 -50 -175 -102 -91 -53 -205 -119 -255 -148 -49 -29 -108
-62 -130 -75 -22 -12 -80 -46 -130 -75 -49 -29 -110 -64 -135 -78 -25 -14 -78
-45 -118 -69 -41 -24 -76 -43 -80 -43 -3 0 -13 -6 -21 -14 -9 -7 -41 -27 -71
-43 -51 -28 -543 -311 -930 -536 -90 -53 -166 -95 -167 -93 -1 1 -4 348 -6
770 -2 523 0 772 8 782 8 12 161 106 205 127 8 4 33 18 55 32 22 14 72 43 110
65 39 23 84 49 100 59 36 22 1053 618 1110 651 22 13 126 74 230 136 105 61
206 121 225 131 19 11 163 96 320 188 343 202 364 215 368 215 1 0 26 -16 55
-35z m-4382 -827 c162 -94 473 -273 692 -398 l397 -228 -47 -30 c-27 -17 -67
-41 -91 -54 -24 -12 -51 -28 -60 -33 -9 -6 -53 -31 -97 -56 -44 -25 -298 -172
-565 -326 -267 -154 -495 -285 -507 -292 l-23 -12 0 801 c0 440 2 800 4 800 2
0 135 -77 297 -172z m9615 -1395 c-2 -3 -112 57 -243 133 -131 75 -281 162
-333 192 -122 70 -111 63 -421 242 -145 84 -285 165 -312 179 -26 14 -46 30
-44 35 2 7 105 69 302 181 22 12 81 46 130 75 50 29 105 61 123 71 101 58 188
108 372 214 113 65 255 147 315 182 l110 64 3 -782 c1 -430 0 -784 -2 -786z
m-1406 395 c58 -33 157 -91 220 -128 126 -74 619 -360 825 -478 193 -110 181
-101 157 -117 -10 -8 -201 -119 -423 -248 -222 -129 -517 -300 -656 -380 -138
-81 -253 -147 -255 -147 -2 0 -3 353 -3 785 0 694 2 785 15 780 8 -4 62 -34
120 -67z m-6965 -729 c0 -423 -1 -769 -3 -769 -1 0 -183 104 -405 231 -221
128 -420 242 -442 254 -154 88 -481 277 -487 283 -5 6 207 133 521 313 25 15
87 50 136 79 50 29 110 64 135 78 24 14 84 49 133 78 49 30 92 54 95 54 3 0
32 17 66 38 34 21 68 41 76 45 8 4 22 11 30 17 55 36 135 78 140 74 3 -3 5
-352 5 -775z m3235 -181 l0 -863 -58 -32 c-245 -135 -321 -464 -161 -699 53
-77 146 -148 235 -179 68 -23 80 -25 154 -25 79 0 104 3 155 20 237 77 376
309 333 555 -23 127 -123 264 -240 328 l-58 32 0 863 c0 475 3 861 8 859 4 -2
120 -69 257 -149 138 -79 440 -254 673 -387 l422 -243 0 -876 -1 -877 -117
-66 c-64 -37 -227 -131 -362 -209 -135 -79 -258 -151 -275 -160 -16 -10 -191
-110 -387 -224 -197 -113 -368 -211 -382 -217 -21 -10 -41 -1 -182 81 -88 51
-175 101 -194 112 -19 11 -145 84 -280 163 -197 115 -545 316 -867 501 l-41
24 0 873 0 874 72 41 c39 22 87 49 106 60 67 37 307 176 625 360 176 102 331
192 345 200 14 7 66 38 115 67 50 30 93 54 98 55 4 0 7 -388 7 -862z m277
-1172 c52 -35 78 -85 77 -152 -1 -166 -230 -230 -322 -91 -21 32 -27 52 -27
97 0 146 150 227 272 146z"/>
</g>
</svg>
