<svg width="70" height="64" viewBox="0 0 70 64" fill="none" xmlns="http://www.w3.org/2000/svg">
<circle cx="24.0653" cy="24.0157" r="23.1099" fill="#F3BA2F"/>
<path d="M18.6707 21.7218L24.0679 16.1469L29.4674 21.7264L32.606 18.4808L24.0679 9.65576L15.5298 18.4785L18.6707 21.7218Z" fill="white"/>
<path d="M10.17 24.0149L13.3087 20.7693L16.4496 24.0149L13.3087 27.2582L10.17 24.0149Z" fill="white"/>
<path d="M18.6707 26.3057L24.0679 31.8829L29.4674 26.3035L32.6082 29.5445L24.0701 38.3695L15.5298 29.5513L18.6707 26.3057Z" fill="white"/>
<path d="M31.6798 24.0149L34.8185 20.7693L37.9594 24.0126L34.8185 27.2605L31.6798 24.0149Z" fill="white"/>
<path d="M27.2528 24.0125L24.068 20.7192L21.7128 23.1529L21.4407 23.4318L20.8832 24.0079L24.068 27.2966L27.2528 24.0147V24.0125Z" fill="white"/>
<path d="M41.6567 57.145C54.1123 57.145 64.2096 47.2335 64.2096 35.0071C64.2096 22.7806 54.1123 12.8691 41.6567 12.8691C29.2011 12.8691 19.1038 22.7806 19.1038 35.0071C19.1038 47.2335 29.2011 57.145 41.6567 57.145Z" fill="url(#paint0_linear_580_41211)"/>
<path d="M41.6567 57.145C54.1123 57.145 64.2096 47.2335 64.2096 35.0071C64.2096 22.7806 54.1123 12.8691 41.6567 12.8691C29.2011 12.8691 19.1038 22.7806 19.1038 35.0071C19.1038 47.2335 29.2011 57.145 41.6567 57.145Z" fill="black" fill-opacity="0.75"/>
<path fill-rule="evenodd" clip-rule="evenodd" d="M41.6572 13.2331C29.4068 13.2331 19.4759 22.9812 19.4759 35.0062C19.4759 47.0311 29.4068 56.7793 41.6572 56.7793C53.9075 56.7793 63.8384 47.0311 63.8384 35.0062C63.8384 22.9812 53.9075 13.2331 41.6572 13.2331ZM18.7325 35.0062C18.7325 22.5782 28.9962 12.5034 41.6572 12.5034C54.3181 12.5034 64.5818 22.5782 64.5818 35.0062C64.5818 47.4341 54.3181 57.5089 41.6572 57.5089C28.9962 57.5089 18.7325 47.4341 18.7325 35.0062Z" fill="url(#paint1_linear_580_41211)"/>
<path d="M40.0876 28.1531C39.986 29.3203 40.1556 30.0403 40.4175 30.4901C40.1168 31.8769 39.9371 33.5969 40.1208 35.5473C39.5257 34.8163 38.5044 33.4561 38.5921 32.8896C38.2536 32.371 40.1288 27.6673 40.0876 28.1531Z" fill="url(#paint2_linear_580_41211)"/>
<path fill-rule="evenodd" clip-rule="evenodd" d="M38.6664 32.8729L38.649 32.8464C38.639 32.8311 38.6281 32.799 38.6237 32.7414C38.6193 32.6856 38.6216 32.6142 38.6307 32.5283C38.6489 32.3565 38.6932 32.1364 38.7566 31.8847C38.8833 31.382 39.0837 30.7633 39.294 30.1743C39.5042 29.5856 39.7236 29.0286 39.8875 28.6497C39.9288 28.5543 39.9662 28.4708 39.999 28.4013C39.9424 29.408 40.0984 30.0665 40.3423 30.5015C40.0561 31.8344 39.8819 33.4705 40.0306 35.3206C39.7556 34.9749 39.426 34.5369 39.1579 34.1144C38.9996 33.8651 38.8642 33.6234 38.774 33.4106C38.6823 33.1944 38.6433 33.0218 38.6615 32.9045L38.6664 32.8729ZM40.0414 35.4491C40.0686 35.483 40.0951 35.5157 40.1208 35.5473C40.1168 35.5044 40.1129 35.4616 40.1092 35.4189C39.9451 33.5213 40.1235 31.8464 40.4175 30.4901C40.1621 30.0515 39.9945 29.3559 40.0805 28.2392C40.0816 28.2245 40.0828 28.2096 40.084 28.1947C40.0852 28.1809 40.0863 28.167 40.0876 28.1531C40.0915 28.1066 40.0779 28.1077 40.0503 28.1481C40.0503 28.1481 40.0503 28.1482 40.0503 28.1482C40.0455 28.1552 40.0403 28.1633 40.0348 28.1726C40.0277 28.1843 40.02 28.1979 40.0117 28.2131C39.6684 28.8464 38.2987 32.4401 38.5921 32.8896C38.5082 33.4316 39.4395 34.7002 40.0414 35.4491Z" fill="black"/>
<path d="M42.1821 33.8294C42.2747 32.1077 42.582 30.2984 43.1981 28.4577C43.933 27.4303 46.6421 24.0508 46.6421 24.0508C46.6421 24.0508 50.7239 23.7632 53.421 25.032C50.3503 25.9401 44.8252 28.9273 42.1821 33.8294Z" fill="url(#paint3_linear_580_41211)"/>
<path fill-rule="evenodd" clip-rule="evenodd" d="M46.677 24.1255C46.6822 24.1251 46.688 24.1248 46.6945 24.1244C46.7248 24.1226 46.7697 24.1202 46.8278 24.1175C46.9442 24.1121 47.1135 24.1059 47.3252 24.1023C47.7487 24.0952 48.3414 24.0989 49.0181 24.1421C50.3105 24.2246 51.9023 24.451 53.2065 25.0171C51.6804 25.4957 49.6162 26.4521 47.6019 27.8682C45.5788 29.2903 43.602 31.1788 42.2719 33.517C42.3833 31.9016 42.6873 30.213 43.2606 28.4968C43.6304 27.981 44.4846 26.888 45.2496 25.92C45.6341 25.4334 45.9956 24.979 46.261 24.6461C46.3937 24.4797 46.5024 24.3437 46.5779 24.2493C46.6156 24.2021 46.6451 24.1654 46.6651 24.1404L46.677 24.1255ZM43.1981 28.4577C42.6022 30.238 42.2952 31.9889 42.1919 33.6596C42.1884 33.7163 42.1851 33.7729 42.1821 33.8294C42.2081 33.7811 42.2344 33.7331 42.261 33.6852C44.9024 28.9252 50.2532 26.0003 53.3131 25.0645C53.3494 25.0534 53.3854 25.0425 53.421 25.032C53.3861 25.0156 53.3509 24.9994 53.3156 24.9835C50.6189 23.7706 46.6421 24.0508 46.6421 24.0508C46.6421 24.0508 43.933 27.4303 43.1981 28.4577Z" fill="black"/>
<path d="M38.3734 33.9587C38.3738 33.9633 38.372 33.966 38.3723 33.9706C38.372 33.966 38.3716 33.9614 38.3734 33.9587Z" fill="url(#paint4_linear_580_41211)"/>
<path fill-rule="evenodd" clip-rule="evenodd" d="M38.3729 33.9646C38.3733 33.9628 38.3736 33.961 38.3734 33.9587C38.3716 33.9614 38.372 33.966 38.3723 33.9706L38.3723 33.9706C38.3721 33.9683 38.3725 33.9664 38.3729 33.9646Z" fill="black"/>
<path d="M40.1752 36.0549C40.255 36.706 40.3785 37.377 40.5515 38.0727C40.1439 38.4611 39.654 39.5179 40.8595 42.2927C40.8595 42.2927 37.8128 38.909 38.3697 33.9751C38.3913 34.15 39.2439 35.5114 40.1752 36.0549Z" fill="url(#paint5_linear_580_41211)"/>
<path fill-rule="evenodd" clip-rule="evenodd" d="M40.7024 42.1035C40.8013 42.228 40.8595 42.2927 40.8595 42.2927C40.8257 42.2148 40.7932 42.1383 40.762 42.0631C39.6814 39.4591 40.1554 38.4502 40.5515 38.0727C40.3785 37.377 40.255 36.706 40.1752 36.0549C39.3748 35.5878 38.6325 34.5166 38.426 34.1136C38.3922 34.0477 38.3727 33.9997 38.3697 33.9751C38.364 34.026 38.3586 34.0767 38.3536 34.1273C37.9422 38.3009 40.0934 41.3369 40.7024 42.1035ZM40.6017 41.8547C40.5543 41.7911 40.5027 41.7199 40.4475 41.6414C40.1727 41.2501 39.8118 40.677 39.4681 39.9506C38.8045 38.5482 38.2063 36.5768 38.414 34.2403C38.4314 34.271 38.4506 34.3038 38.4716 34.3384C38.5708 34.5018 38.7102 34.7078 38.878 34.9251C39.2049 35.3483 39.6449 35.8211 40.1104 36.1026C40.189 36.7307 40.308 37.377 40.4725 38.0457C40.264 38.2598 40.0526 38.6359 40.0303 39.2826C40.0096 39.8807 40.1507 40.7085 40.6017 41.8547Z" fill="black"/>
<path opacity="0.13" d="M46.6388 24.055L40.0872 28.1532C40.0872 28.1532 36.1269 35.8159 44.9119 46.3881C44.9796 46.4441 39.4611 35.0069 46.6388 24.055Z" fill="#141413"/>
<path opacity="0.13" fill-rule="evenodd" clip-rule="evenodd" d="M46.6388 24.055C46.6058 24.1052 46.5732 24.1555 46.5407 24.2058C40.1056 34.1902 44.1446 44.5319 44.8213 46.1654C44.8409 46.2127 44.8577 46.2527 44.8713 46.2852C44.8769 46.2986 44.882 46.3107 44.8866 46.3215C44.9027 46.3602 44.9117 46.3824 44.9125 46.3872C44.9125 46.3873 44.9125 46.3874 44.9125 46.3875C44.9126 46.3883 44.9124 46.3885 44.9119 46.3881C44.8965 46.3695 44.8811 46.3509 44.8657 46.3323C44.8309 46.2903 44.7964 46.2483 44.762 46.2064C36.1722 35.7283 40.0872 28.1532 40.0872 28.1532L46.6388 24.055ZM46.3958 24.2965C42.9658 29.6992 42.5721 35.1951 43.0393 39.3565C43.277 41.4739 43.7376 43.2461 44.1346 44.4856C44.3331 45.1054 44.5157 45.5921 44.6467 45.9223C44.6544 45.9416 44.6618 45.9603 44.6691 45.9785C40.5274 40.858 39.3804 36.4495 39.2755 33.3056C39.2218 31.6961 39.441 30.4159 39.6733 29.539C39.7895 29.1005 39.9088 28.7628 39.9989 28.5352C40.044 28.4214 40.0817 28.3352 40.108 28.2777C40.1212 28.2489 40.1315 28.2273 40.1385 28.213C40.1391 28.2118 40.1396 28.2107 40.1401 28.2096L46.3958 24.2965Z" fill="black"/>
<path d="M45.4762 23.7796L41.7618 26.7493C41.7618 26.7493 36.2746 35.905 44.9153 46.3847C44.9806 46.4442 38.2961 34.735 45.4762 23.7796Z" fill="url(#paint6_linear_580_41211)"/>
<path fill-rule="evenodd" clip-rule="evenodd" d="M45.4762 23.7796C45.4325 23.8462 45.3894 23.9128 45.3467 23.9795C39.0508 33.8237 43.8306 44.2141 44.7655 46.0871C44.814 46.1842 44.8522 46.2585 44.8779 46.3085C44.8807 46.314 44.8833 46.3192 44.8858 46.324C44.9043 46.3599 44.9146 46.3802 44.9157 46.3842C44.9157 46.3842 44.9157 46.3843 44.9157 46.3843C44.9159 46.385 44.9157 46.3851 44.9153 46.3847C44.9009 46.3672 44.8865 46.3497 44.8721 46.3322C44.8168 46.2647 44.762 46.1973 44.7078 46.13C36.3632 35.7571 41.7618 26.7493 41.7618 26.7493L45.4762 23.7796ZM45.1715 24.1196C41.8094 29.4977 41.7086 35.022 42.4587 39.2252C42.8426 41.3767 43.4496 43.1828 43.9564 44.4472C44.1897 45.0292 44.4019 45.4966 44.5614 45.8304C40.6114 40.7979 39.8877 36.1093 40.1684 32.6461C40.3135 30.8556 40.7273 29.3909 41.1048 28.3742C41.2935 27.8659 41.473 27.4697 41.6051 27.201C41.6712 27.0666 41.7254 26.9641 41.763 26.8954C41.7818 26.861 41.7964 26.8351 41.8063 26.8179C41.8096 26.8121 41.8124 26.8073 41.8146 26.8035L45.1715 24.1196Z" fill="black"/>
<path d="M41.3781 43.3929C41.3781 43.3929 46.3169 43.2072 49.4967 45.6486C52.0468 47.7641 53.4466 46.7163 53.4466 46.7163C53.4466 46.7163 51.0687 45.854 50.6367 44.3935C50.5032 43.9362 49.9826 43.5714 49.2024 43.3066C47.5059 42.7216 44.1945 43.0287 41.3781 43.3929Z" fill="url(#paint7_linear_580_41211)"/>
<path fill-rule="evenodd" clip-rule="evenodd" d="M53.362 46.6837C53.4163 46.7053 53.4466 46.7163 53.4466 46.7163C53.4466 46.7163 53.4202 46.736 53.368 46.7647C53.0403 46.9444 51.6965 47.4735 49.4967 45.6486C46.9746 43.7121 43.3458 43.4285 41.9527 43.394C41.5894 43.385 41.3781 43.3929 41.3781 43.3929C41.5664 43.3686 41.7569 43.3445 41.9489 43.3209C44.63 42.9916 47.6193 42.7607 49.2024 43.3066C49.9826 43.5714 50.5032 43.9362 50.6367 44.3935C51.0199 45.6892 52.9347 46.514 53.362 46.6837ZM53.2779 46.7287C53.2147 46.7028 53.1329 46.6682 53.0373 46.625C52.8056 46.5204 52.4919 46.3656 52.1642 46.1644C51.5133 45.7648 50.7895 45.1717 50.5654 44.4138L50.5653 44.4136C50.5043 44.2047 50.3533 44.0114 50.1172 43.8361C49.8811 43.6608 49.5637 43.5065 49.1781 43.3756L49.1778 43.3755C48.3437 43.0878 47.1038 43.0176 45.7129 43.0667C44.6556 43.1041 43.5167 43.2101 42.412 43.3389C42.905 43.365 43.5431 43.42 44.2568 43.5332C45.8944 43.7928 47.9383 44.3594 49.5425 45.5911L49.5436 45.5919L49.5447 45.5928C50.8098 46.6424 51.781 46.9004 52.4282 46.9028C52.7524 46.904 52.9979 46.8411 53.1611 46.7789C53.2064 46.7617 53.2453 46.7445 53.2779 46.7287Z" fill="black"/>
<path d="M49.1033 43.2344C49.8785 43.5001 50.3602 43.9559 50.4937 44.4132C50.9265 45.8785 53.3475 46.644 53.3475 46.644C53.3475 46.644 50.5117 45.9016 50.1218 42.5605C50.0093 42.3027 49.634 41.5706 48.4447 41.6103C48.197 41.5248 49.1033 43.2344 49.1033 43.2344Z" fill="url(#paint8_linear_580_41211)"/>
<path fill-rule="evenodd" clip-rule="evenodd" d="M49.1033 43.2344C49.8785 43.5001 50.3602 43.9559 50.4937 44.4132C50.695 45.0946 51.3263 45.6248 51.9441 45.9969C52.285 46.2023 52.6219 46.3596 52.8801 46.4676C53.1623 46.5955 53.3475 46.644 53.3475 46.644C53.3475 46.644 53.16 46.5847 52.8801 46.4676C52.6358 46.3568 52.3188 46.1866 51.9862 45.9367C51.1995 45.3455 50.3258 44.3088 50.1218 42.5605C50.0093 42.3027 49.634 41.5706 48.4447 41.6103C48.197 41.5248 49.1033 43.2344 49.1033 43.2344ZM50.0492 42.5796C50.2146 43.9758 50.8029 44.9251 51.4369 45.5578C51.0373 45.2385 50.6999 44.849 50.5651 44.3929C50.4241 43.9103 49.9278 43.4467 49.1558 43.1752C49.1495 43.1632 49.1411 43.1473 49.131 43.1278C49.1068 43.0814 49.0725 43.0152 49.032 42.9359C48.9511 42.7774 48.846 42.5671 48.7486 42.3598C48.6509 42.1517 48.5624 41.9491 48.5137 41.805C48.4958 41.7522 48.4847 41.7112 48.4796 41.6824C49.0384 41.6703 49.4021 41.8353 49.6394 42.0299C49.8767 42.2244 49.9931 42.4528 50.0492 42.5796ZM48.4766 41.6453C48.4766 41.6453 48.4765 41.6458 48.4764 41.6465C48.4765 41.6457 48.4765 41.6453 48.4766 41.6453Z" fill="black"/>
<path d="M42.8273 45.3684L41.3182 43.3977C41.3182 43.3977 45.8695 43.1907 49.1755 45.382C49.2565 45.3281 51.5397 47.753 53.4512 46.7147C53.7122 46.6789 51.1665 48.4774 47.5537 45.6807C45.7679 44.2986 42.8273 45.3684 42.8273 45.3684Z" fill="url(#paint9_linear_580_41211)"/>
<path fill-rule="evenodd" clip-rule="evenodd" d="M41.3182 43.3977C41.3182 43.3977 41.3496 43.3963 41.4091 43.3949C42.0656 43.3799 46.1441 43.3726 49.1755 45.382C49.1898 45.3724 49.273 45.4405 49.411 45.5532C50.0119 46.0443 51.6504 47.3834 53.1482 46.8502C53.2322 46.8203 53.3158 46.7845 53.3988 46.7423C53.4163 46.7334 53.4337 46.7242 53.4512 46.7147C53.471 46.712 53.4746 46.7199 53.4629 46.7355C53.4608 46.7382 53.4583 46.7411 53.4554 46.7442C53.4475 46.7527 53.4362 46.7627 53.4218 46.7741C53.3741 46.8113 53.2916 46.8626 53.1768 46.9177C52.4262 47.2782 50.2978 47.8049 47.5537 45.6807C45.7679 44.2986 42.8273 45.3684 42.8273 45.3684L41.3182 43.3977ZM41.4641 43.4668L42.854 45.2819C42.8749 45.2748 42.9018 45.266 42.9343 45.2557C43.0193 45.2288 43.1425 45.192 43.2957 45.1523C43.602 45.0729 44.0293 44.9815 44.5134 44.9337C45.4785 44.8383 46.6841 44.9148 47.5997 45.6234C49.3922 47.011 50.9131 47.2541 51.9483 47.1604C52.2124 47.1365 52.4453 47.0906 52.6434 47.036C51.9119 47.1057 51.1843 46.8213 50.5895 46.4805C50.1748 46.243 49.8187 45.9747 49.5621 45.7702C49.4979 45.719 49.4399 45.6718 49.3888 45.63C49.3801 45.6229 49.3716 45.616 49.3633 45.6092C49.3228 45.5761 49.2875 45.5472 49.2571 45.5229C49.2253 45.4975 49.2006 45.4784 49.1823 45.4655L49.1755 45.47L49.1339 45.4424C47.4939 44.3554 45.542 43.8617 43.9964 43.6403C43.2241 43.5297 42.5548 43.4873 42.0787 43.4725C41.8406 43.4652 41.651 43.4647 41.521 43.4661C41.5006 43.4663 41.4816 43.4665 41.4641 43.4668Z" fill="black"/>
<path d="M42.8277 45.3686C42.8277 45.3686 45.5951 44.1508 47.5582 45.6753C47.5582 45.6753 46.0988 45.9506 45.4731 46.2583C44.6485 46.6653 44.5493 47.203 44.5493 47.203L42.8277 45.3686Z" fill="url(#paint10_linear_580_41211)"/>
<path fill-rule="evenodd" clip-rule="evenodd" d="M45.4398 46.1932L45.4398 46.1931C45.761 46.0351 46.2899 45.8877 46.7325 45.7806C46.955 45.7267 47.1577 45.6825 47.3049 45.6517C47.3324 45.646 47.358 45.6407 47.3814 45.6359C46.4487 44.9808 45.3516 44.915 44.4659 45.0227C44.0029 45.0789 43.6002 45.1823 43.3133 45.2717C43.1699 45.3164 43.0556 45.3575 42.9774 45.3873C42.9694 45.3903 42.9618 45.3933 42.9546 45.3961L44.5182 47.0622C44.543 47.0034 44.5815 46.9277 44.6404 46.8424C44.7755 46.6466 45.0162 46.4022 45.4398 46.1932ZM44.5742 47.1218C44.5548 47.173 44.5493 47.203 44.5493 47.203L42.8277 45.3686C42.8277 45.3686 42.8531 45.3575 42.9007 45.3386C43.3435 45.1632 45.7121 44.3218 47.4798 45.6162C47.506 45.6354 47.5322 45.6551 47.5582 45.6753C47.5582 45.6753 47.5232 45.6819 47.4617 45.6942C47.1263 45.7613 46.0019 45.9982 45.4731 46.2583C44.8433 46.5692 44.6367 46.9563 44.5742 47.1218Z" fill="black"/>
<path d="M41.4611 41.0627L39.9868 41.8283L43.7728 45.8688L41.4611 41.0627Z" fill="url(#paint11_linear_580_41211)"/>
<path fill-rule="evenodd" clip-rule="evenodd" d="M39.9868 41.8283L43.7728 45.8688L41.4611 41.0627L39.9868 41.8283ZM41.4271 41.1629L40.1067 41.8485L43.4973 45.4671L41.4271 41.1629Z" fill="black"/>
<path d="M38.2929 42.6889L39.8043 41.9721L43.7731 45.8701L44.7421 47.1978L38.2929 42.6889Z" fill="url(#paint12_linear_580_41211)"/>
<path fill-rule="evenodd" clip-rule="evenodd" d="M38.2929 42.6889L44.7421 47.1978L43.7731 45.8701L39.8043 41.9721L38.2929 42.6889ZM38.4383 42.701L44.4219 46.8844L43.7162 45.9174L39.7891 42.0604L38.4383 42.701Z" fill="black"/>
<path d="M34.6423 45.3885L38.0689 42.9796L41.1257 44.5901L44.7417 47.1982L34.6423 45.3885Z" fill="url(#paint13_linear_580_41211)"/>
<path fill-rule="evenodd" clip-rule="evenodd" d="M34.6423 45.3885L44.7417 47.1982L41.1257 44.5901L38.0689 42.9796L34.6423 45.3885ZM34.8282 45.3476L44.4379 47.0696L41.086 44.652L38.0746 43.0654L34.8282 45.3476Z" fill="black"/>
<path d="M29.2144 50.1623L33.5353 46.1247L37.6655 45.8187L44.7419 47.1978L29.2144 50.1623Z" fill="url(#paint14_linear_580_41211)"/>
<path fill-rule="evenodd" clip-rule="evenodd" d="M29.2144 50.1623L44.7419 47.1978L37.6655 45.8187L33.5353 46.1247L29.2144 50.1623ZM29.4498 50.043L44.3565 47.1971L37.661 45.8922L33.5674 46.1955L29.4498 50.043Z" fill="black"/>
<path d="M34.5214 23.0582C34.6839 24.661 35.064 25.6155 35.4895 26.1889C35.4656 28.1198 35.6687 30.486 36.3663 33.1125C35.4706 32.2053 33.9075 30.5048 33.875 29.7212C33.3404 29.0654 34.4525 22.3912 34.5214 23.0582Z" fill="url(#paint15_linear_580_41211)"/>
<path fill-rule="evenodd" clip-rule="evenodd" d="M33.9399 29.6947L33.9191 29.6692C33.899 29.6445 33.8766 29.597 33.8568 29.5177C33.8374 29.4402 33.8226 29.3411 33.8125 29.222C33.7924 28.9839 33.7921 28.6766 33.8071 28.3244C33.8371 27.6208 33.9278 26.7488 34.0375 25.9164C34.1473 25.0842 34.2758 24.2938 34.381 23.7537C34.418 23.5632 34.452 23.4053 34.4809 23.2881C34.6538 24.7406 35.0127 25.6445 35.4227 26.2103C35.4021 28.0832 35.5946 30.3611 36.2405 32.8865C35.8152 32.4489 35.2863 31.8777 34.8418 31.3194C34.5897 31.0028 34.3665 30.6925 34.2047 30.4144C34.0409 30.1329 33.9483 29.8981 33.9413 29.7281L33.9399 29.6947ZM36.2749 33.0195C36.306 33.0513 36.3365 33.0824 36.3663 33.1125C36.3545 33.0681 36.3428 33.0238 36.3313 32.9795C35.6619 30.4062 35.466 28.0872 35.4895 26.1889C35.0696 25.623 34.6939 24.6859 34.5279 23.1208C34.5268 23.1106 34.5258 23.1004 34.5247 23.0901C34.5236 23.0795 34.5225 23.0689 34.5214 23.0582C34.5148 22.9941 34.4985 22.9978 34.475 23.0574C34.475 23.0575 34.475 23.0575 34.475 23.0576C34.4734 23.0617 34.4717 23.0661 34.47 23.0707C34.4668 23.0796 34.4634 23.0895 34.4599 23.1003C34.2176 23.8525 33.4021 29.1411 33.875 29.7212C33.9065 30.4788 35.3684 32.0934 36.2749 33.0195Z" fill="black"/>
<path d="M38.4307 30.4746C38.1221 28.1189 38.0509 25.6123 38.3442 23.0177C38.9793 21.5122 41.4197 16.5171 41.4197 16.5171C41.4197 16.5171 46.2693 15.5267 49.8298 16.8569C46.3504 18.543 40.4201 23.4179 38.4307 30.4746Z" fill="url(#paint16_linear_580_41211)"/>
<path fill-rule="evenodd" clip-rule="evenodd" d="M41.4651 16.5909C41.473 16.5893 41.4826 16.5875 41.4939 16.5853C41.5301 16.5784 41.5837 16.5685 41.6532 16.5563C41.7922 16.5319 41.995 16.4985 42.2495 16.4626C42.7586 16.3907 43.4744 16.3086 44.3012 16.2681C45.898 16.1897 47.9024 16.2665 49.6298 16.8652C47.9025 17.7334 45.6255 19.3461 43.5238 21.5888C41.4146 23.8396 39.4788 26.7285 38.4545 30.141C38.1832 27.893 38.1315 25.5117 38.4087 23.0509C38.728 22.2956 39.4922 20.6805 40.1787 19.2496C40.5234 18.5312 40.8483 17.8599 41.087 17.3681C41.2063 17.1222 41.3041 16.9213 41.3721 16.7818C41.406 16.712 41.4326 16.6576 41.4506 16.6207L41.4651 16.5909ZM38.3442 23.0177C38.0582 25.5477 38.1188 27.9939 38.4081 30.2983C38.4155 30.3571 38.4231 30.4159 38.4307 30.4746C38.4457 30.4217 38.4608 30.3689 38.4762 30.3162C40.4906 23.4076 46.2712 18.6172 49.736 16.9029C49.7675 16.8873 49.7988 16.872 49.8298 16.8569C49.7947 16.8438 49.7595 16.8309 49.7242 16.8183C46.1742 15.5461 41.4197 16.5171 41.4197 16.5171C41.4197 16.5171 38.9793 21.5122 38.3442 23.0177Z" fill="black"/>
<path d="M33.8725 31.2085C33.8742 31.215 33.8725 31.2192 33.8741 31.2257C33.8725 31.2192 33.8709 31.2127 33.8725 31.2085Z" fill="url(#paint17_linear_580_41211)"/>
<path fill-rule="evenodd" clip-rule="evenodd" d="M33.8733 31.2171C33.8733 31.2144 33.8733 31.2118 33.8725 31.2085C33.8709 31.2127 33.8725 31.2192 33.8742 31.2257L33.8742 31.2257C33.8733 31.2224 33.8733 31.2198 33.8733 31.2171Z" fill="black"/>
<path d="M36.5549 33.7963C36.81 34.6703 37.1227 35.5651 37.501 36.4861C37.1045 37.0743 36.7719 38.584 38.9022 42.1819C38.9022 42.1819 34.4042 38.0259 33.8712 31.2319C33.9398 31.4668 35.2998 33.1936 36.5549 33.7963Z" fill="url(#paint18_linear_580_41211)"/>
<path fill-rule="evenodd" clip-rule="evenodd" d="M38.7232 42.0056C38.8377 42.1222 38.9022 42.1819 38.9022 42.1819C38.857 42.1056 38.813 42.0302 38.77 41.9558C36.7861 38.5204 37.1129 37.0618 37.501 36.4861C37.1227 35.5651 36.81 34.6703 36.5549 33.7963C35.45 33.2657 34.2638 31.864 33.9489 31.3759C33.9061 31.3095 33.8794 31.26 33.8712 31.2319C33.8755 31.2875 33.8801 31.3429 33.885 31.3981C34.4059 37.2851 37.8895 41.1565 38.7232 42.0056ZM38.5845 41.7623C38.4844 41.6554 38.3661 41.5252 38.2334 41.3722C37.8059 40.8793 37.23 40.1513 36.6374 39.212C35.4849 37.3849 34.2709 34.7607 33.9613 31.5124C34.0001 31.5677 34.0456 31.6296 34.0971 31.6968C34.2559 31.9037 34.4735 32.1627 34.7282 32.433C35.2275 32.9628 35.8751 33.5424 36.5044 33.8538C36.7541 34.704 37.058 35.5735 37.4234 36.4674C37.2243 36.7834 37.0572 37.3223 37.1887 38.2088C37.3131 39.0474 37.7042 40.1954 38.5845 41.7623Z" fill="black"/>
<path opacity="0.13" d="M41.4178 16.5206L34.5214 23.0574C34.5214 23.0574 31.6183 34.0632 44.7873 47.1563C44.8826 47.2226 35.4396 32.4732 41.4178 16.5206Z" fill="#141413"/>
<path opacity="0.13" fill-rule="evenodd" clip-rule="evenodd" d="M41.4178 16.5206C41.3969 16.5763 41.3762 16.632 41.3557 16.6877C35.9373 31.4033 43.5809 45.0534 44.6635 46.9358C44.682 46.9681 44.6987 46.997 44.7133 47.0223C44.7285 47.0487 44.7416 47.0713 44.7523 47.09C44.7739 47.1277 44.786 47.1495 44.7878 47.1551C44.7878 47.1552 44.7879 47.1553 44.7879 47.1554C44.7882 47.1565 44.788 47.1568 44.7873 47.1563C44.7698 47.1388 44.7523 47.1214 44.7348 47.104C44.6953 47.0646 44.656 47.0253 44.6168 46.9859C31.6434 33.9679 34.5214 23.0574 34.5214 23.0574L41.4178 16.5206ZM41.2393 16.798C38.3827 24.6812 39.2495 32.2497 40.8338 37.8617C41.6366 40.7051 42.6235 43.0467 43.4039 44.6734C43.7942 45.4868 44.1328 46.1216 44.371 46.5511C44.4127 46.6262 44.4513 46.6951 44.4865 46.7575C38.1642 40.3544 35.6803 34.479 34.7803 30.1876C34.3221 28.0031 34.2738 26.2268 34.3398 24.9975C34.3728 24.3829 34.4344 23.9051 34.4876 23.5814C34.5142 23.4196 34.5387 23.2964 34.5565 23.2139C34.5654 23.1726 34.5726 23.1415 34.5775 23.1209C34.5785 23.1169 34.5793 23.1133 34.5801 23.1101L41.2393 16.798Z" fill="black"/>
<path d="M39.9436 16.3255L36.1915 20.9108C36.1915 20.9108 31.8124 34.1717 44.7849 47.1602C44.8781 47.2315 33.9634 32.2832 39.9436 16.3255Z" fill="url(#paint19_linear_580_41211)"/>
<path fill-rule="evenodd" clip-rule="evenodd" d="M39.9436 16.3255C39.9159 16.3994 39.8886 16.4733 39.8616 16.5472C34.5543 31.0796 43.1684 44.72 44.5913 46.8676C44.6454 46.9492 44.6891 47.0142 44.7212 47.0621C44.7309 47.0765 44.7395 47.0894 44.7471 47.1006C44.7703 47.1352 44.7833 47.1549 44.7852 47.1594C44.7852 47.1595 44.7853 47.1595 44.7853 47.1596C44.7856 47.1604 44.7855 47.1606 44.7849 47.1602C44.7685 47.1438 44.7521 47.1274 44.7358 47.111C44.6723 47.0472 44.6092 46.9833 44.5466 46.9195C31.8663 34.0084 36.1915 20.9108 36.1915 20.9108L39.9436 16.3255ZM39.7258 16.7131C36.9278 24.5635 38.1564 32.1403 40.0957 37.7754C41.0829 40.6439 42.2544 43.01 43.1733 44.6546C43.6327 45.4769 44.0291 46.119 44.3079 46.5535C44.3228 46.5768 44.3375 46.5995 44.3517 46.6217C38.248 40.3012 36.2009 33.9612 35.6893 29.1654C35.427 26.7054 35.5684 24.6498 35.7754 23.2095C35.8789 22.4895 35.9988 21.9234 36.0926 21.5377C36.1395 21.3449 36.1799 21.1972 36.2085 21.0979C36.2228 21.0483 36.2342 21.0108 36.2419 20.9857C36.2452 20.9753 36.2478 20.9671 36.2497 20.9611L39.7258 16.7131Z" fill="black"/>
<defs>
<linearGradient id="paint0_linear_580_41211" x1="24.1537" y1="47.7755" x2="62.0409" y2="22.4308" gradientUnits="userSpaceOnUse">
<stop stop-color="#FF000E"/>
<stop offset="1" stop-color="#FFA800"/>
</linearGradient>
<linearGradient id="paint1_linear_580_41211" x1="66.5122" y1="53.3688" x2="56.0242" y2="9.20307" gradientUnits="userSpaceOnUse">
<stop stop-color="#FBB040"/>
<stop offset="0.9985" stop-color="#F9ED32"/>
</linearGradient>
<linearGradient id="paint2_linear_580_41211" x1="41.649" y1="33.1143" x2="37.6722" y2="30.3893" gradientUnits="userSpaceOnUse">
<stop offset="0.192" stop-color="#FBB040"/>
<stop offset="0.9985" stop-color="#F9ED32"/>
</linearGradient>
<linearGradient id="paint3_linear_580_41211" x1="40.9983" y1="31.184" x2="52.2978" y2="26.1306" gradientUnits="userSpaceOnUse">
<stop stop-color="#FBB040"/>
<stop offset="0.9985" stop-color="#F9ED32"/>
</linearGradient>
<linearGradient id="paint4_linear_580_41211" x1="38.374" y1="33.9677" x2="38.3687" y2="33.9641" gradientUnits="userSpaceOnUse">
<stop stop-color="#FBB040"/>
<stop offset="0.9985" stop-color="#F9ED32"/>
</linearGradient>
<linearGradient id="paint5_linear_580_41211" x1="42.2271" y1="40.2938" x2="36.6555" y2="36.476" gradientUnits="userSpaceOnUse">
<stop offset="0.5015" stop-color="#FBB040"/>
<stop offset="0.9985" stop-color="#F9ED32"/>
</linearGradient>
<linearGradient id="paint6_linear_580_41211" x1="44.3634" y1="43.9653" x2="40.2618" y2="27.9063" gradientUnits="userSpaceOnUse">
<stop offset="0.7201" stop-color="#FBB040"/>
<stop offset="1" stop-color="#F9ED32"/>
</linearGradient>
<linearGradient id="paint7_linear_580_41211" x1="47.6544" y1="46.3688" x2="48.5982" y2="51.7599" gradientUnits="userSpaceOnUse">
<stop stop-color="#F0A321"/>
<stop offset="1" stop-color="#F0582E"/>
</linearGradient>
<linearGradient id="paint8_linear_580_41211" x1="50.3516" y1="41.2704" x2="51.3534" y2="46.993" gradientUnits="userSpaceOnUse">
<stop stop-color="#F0A321"/>
<stop offset="1" stop-color="#F0582E"/>
</linearGradient>
<linearGradient id="paint9_linear_580_41211" x1="48.4266" y1="42.8494" x2="45.8743" y2="48.5164" gradientUnits="userSpaceOnUse">
<stop stop-color="#F0A321"/>
<stop offset="1" stop-color="#F0582E"/>
</linearGradient>
<linearGradient id="paint10_linear_580_41211" x1="41.8089" y1="50.1721" x2="44.9718" y2="45.6601" gradientUnits="userSpaceOnUse">
<stop stop-color="#F0A321"/>
<stop offset="1" stop-color="#F0582E"/>
</linearGradient>
<linearGradient id="paint11_linear_580_41211" x1="41.376" y1="41.0751" x2="42.2613" y2="46.1324" gradientUnits="userSpaceOnUse">
<stop stop-color="#FBB040"/>
<stop offset="0.9985" stop-color="#F9ED32"/>
</linearGradient>
<linearGradient id="paint12_linear_580_41211" x1="41.2781" y1="41.8351" x2="41.7985" y2="47.4719" gradientUnits="userSpaceOnUse">
<stop stop-color="#FBB040"/>
<stop offset="0.9985" stop-color="#F9ED32"/>
</linearGradient>
<linearGradient id="paint13_linear_580_41211" x1="39.4252" y1="42.8551" x2="39.8679" y2="47.6505" gradientUnits="userSpaceOnUse">
<stop stop-color="#FBB040"/>
<stop offset="0.9985" stop-color="#F9ED32"/>
</linearGradient>
<linearGradient id="paint14_linear_580_41211" x1="36.7551" y1="45.8277" x2="37.0883" y2="49.436" gradientUnits="userSpaceOnUse">
<stop stop-color="#FBB040"/>
<stop offset="0.9985" stop-color="#F9ED32"/>
</linearGradient>
<linearGradient id="paint15_linear_580_41211" x1="37.6143" y1="29.5782" x2="31.8296" y2="27.2744" gradientUnits="userSpaceOnUse">
<stop offset="0.192" stop-color="#FBB040"/>
<stop offset="0.9985" stop-color="#F9ED32"/>
</linearGradient>
<linearGradient id="paint16_linear_580_41211" x1="36.3582" y1="27.0496" x2="49.2056" y2="19.2791" gradientUnits="userSpaceOnUse">
<stop stop-color="#FBB040"/>
<stop offset="0.9985" stop-color="#F9ED32"/>
</linearGradient>
<linearGradient id="paint17_linear_580_41211" x1="33.8755" y1="31.2213" x2="33.8675" y2="31.2182" gradientUnits="userSpaceOnUse">
<stop stop-color="#FBB040"/>
<stop offset="0.9985" stop-color="#F9ED32"/>
</linearGradient>
<linearGradient id="paint18_linear_580_41211" x1="40.0627" y1="39.2619" x2="31.9581" y2="36.0342" gradientUnits="userSpaceOnUse">
<stop offset="0.5015" stop-color="#FBB040"/>
<stop offset="0.9985" stop-color="#F9ED32"/>
</linearGradient>
<linearGradient id="paint19_linear_580_41211" x1="43.5292" y1="43.9499" x2="34.3934" y2="22.8228" gradientUnits="userSpaceOnUse">
<stop offset="0.7201" stop-color="#FBB040"/>
<stop offset="1" stop-color="#F9ED32"/>
</linearGradient>
</defs>
</svg>
